<svg width="16" height="15" viewBox="0 0 16 15" fill="none" xmlns="http://www.w3.org/2000/svg">
<path d="M14.0952 15H1.90476C0.854857 15 0 14.2846 0 13.405V12.2088C0 11.9887 0.170667 11.8101 0.380952 11.8101C0.591238 11.8101 0.761905 11.9887 0.761905 12.2088V13.405C0.761905 13.8373 1.28533 14.2025 1.90476 14.2025H14.0952C14.7147 14.2025 15.2381 13.8373 15.2381 13.405V12.2088C15.2381 11.9887 15.4088 11.8101 15.619 11.8101C15.8293 11.8101 16 11.9887 16 12.2088V13.405C16 14.2838 15.1459 15 14.0952 15Z" fill="white"/>
<path d="M8.40766 0.3675C8.40766 0.165375 8.23623 0 8.0267 0C7.81718 0 7.64575 0.165375 7.64575 0.3675V11.3925C7.64575 11.5946 7.81718 11.76 8.0267 11.76C8.23623 11.76 8.40766 11.5946 8.40766 11.3925V0.3675Z" fill="white"/>
<path d="M10.0698 9.22229C9.92198 9.06758 9.67893 9.06758 9.53112 9.22229L8.02636 10.7973L6.52159 9.22229C6.37379 9.06758 6.13074 9.06758 5.98293 9.22229C5.83512 9.377 5.83512 9.6314 5.98293 9.7861L7.59893 11.4775C7.71398 11.598 7.8854 11.6219 8.02636 11.5549C8.16731 11.6219 8.33798 11.598 8.45378 11.4775L10.0698 9.7861C10.2184 9.6314 10.2184 9.377 10.0698 9.22229Z" fill="white"/>
</svg>
